name Walk10.mot
datacolumns 19
datarows 25
range 2.41100000 2.43500000
endheader

                time	   L_ground_force_vx	   L_ground_force_vy	   L_ground_force_vz	   L_ground_force_px	   L_ground_force_py	   L_ground_force_pz	   R_ground_force_vx	   R_ground_force_vy	   R_ground_force_vz	   R_ground_force_px	   R_ground_force_py	   R_ground_force_pz	   L_ground_torque_x	   L_ground_torque_y	   L_ground_torque_z	   R_ground_torque_x	   R_ground_torque_y	   R_ground_torque_z	
          2.41100000	         13.47471769	         59.09731343	         17.20618469	          0.61793660	          0.00000000	          0.15832650	          0.00000000	          0.00000000	          0.00000000	          0.00000000	          0.00000000	          0.00000000	          0.00000000	         -3.37147785	          0.00000000	          0.00000000	          0.00000000	          0.00000000	
          2.41200000	         12.08962533	         55.39059226	         16.22941536	          0.62050355	          0.00000000	          0.15788430	          0.00000000	          0.00000000	          0.00000000	          0.00000000	          0.00000000	          0.00000000	          0.00000000	         -3.04482621	          0.00000000	          0.00000000	          0.00000000	          0.00000000	
          2.41300000	         10.74434595	         51.90755435	         15.22913058	          0.62302957	          0.00000000	          0.15707340	          0.00000000	          0.00000000	          0.00000000	          0.00000000	          0.00000000	          0.00000000	          0.00000000	         -2.73131581	          0.00000000	          0.00000000	          0.00000000	          0.00000000	
          2.41400000	          9.43333814	         48.62778928	         14.21961121	          0.62515536	          0.00000000	          0.15608268	          0.00000000	          0.00000000	          0.00000000	          0.00000000	          0.00000000	          0.00000000	          0.00000000	         -2.44818039	          0.00000000	          0.00000000	          0.00000000	          0.00000000	
          2.41500000	          8.15328600	         45.51173904	         13.23148169	          0.62674187	          0.00000000	          0.15518430	          0.00000000	          0.00000000	          0.00000000	          0.00000000	          0.00000000	          0.00000000	          0.00000000	         -2.19556563	          0.00000000	          0.00000000	          0.00000000	          0.00000000	
          2.41600000	          6.91065246	         42.55625080	         12.29783439	          0.62800004	          0.00000000	          0.15473072	          0.00000000	          0.00000000	          0.00000000	          0.00000000	          0.00000000	          0.00000000	          0.00000000	         -1.96149851	          0.00000000	          0.00000000	          0.00000000	          0.00000000	
          2.41700000	          5.71605489	         39.79887355	         11.44184838	          0.62938960	          0.00000000	          0.15497516	          0.00000000	          0.00000000	          0.00000000	          0.00000000	          0.00000000	          0.00000000	          0.00000000	         -1.73369156	          0.00000000	          0.00000000	          0.00000000	          0.00000000	
          2.41800000	          4.57076117	         37.28327636	         10.67624096	          0.63127058	          0.00000000	          0.15587153	          0.00000000	          0.00000000	          0.00000000	          0.00000000	          0.00000000	          0.00000000	          0.00000000	         -1.50480102	          0.00000000	          0.00000000	          0.00000000	          0.00000000	
          2.41900000	          3.46839074	         35.02317458	          9.99817190	          0.63385116	          0.00000000	          0.15705688	          0.00000000	          0.00000000	          0.00000000	          0.00000000	          0.00000000	          0.00000000	          0.00000000	         -1.27281285	          0.00000000	          0.00000000	          0.00000000	          0.00000000	
          2.42000000	          2.41190414	         32.95762894	          9.37734987	          0.63741081	          0.00000000	          0.15804452	          0.00000000	          0.00000000	          0.00000000	          0.00000000	          0.00000000	          0.00000000	          0.00000000	         -1.04301377	          0.00000000	          0.00000000	          0.00000000	          0.00000000	
          2.42100000	          1.42402700	         30.93322788	          8.75671568	          0.64226105	          0.00000000	          0.15850910	          0.00000000	          0.00000000	          0.00000000	          0.00000000	          0.00000000	          0.00000000	          0.00000000	         -0.82627800	          0.00000000	          0.00000000	          0.00000000	          0.00000000	
          2.42200000	          0.54235415	         28.73244394	          8.06869908	          0.64845636	          0.00000000	          0.15836912	          0.00000000	          0.00000000	          0.00000000	          0.00000000	          0.00000000	          0.00000000	          0.00000000	         -0.63081993	          0.00000000	          0.00000000	          0.00000000	          0.00000000	
          2.42300000	         -0.19073076	         26.09603035	          7.24825589	          0.65565571	          0.00000000	          0.15761013	          0.00000000	          0.00000000	          0.00000000	          0.00000000	          0.00000000	          0.00000000	          0.00000000	         -0.45854608	          0.00000000	          0.00000000	          0.00000000	          0.00000000	
          2.42400000	         -0.72529514	         22.74447379	          6.23562790	          0.66338950	          0.00000000	          0.15624387	          0.00000000	          0.00000000	          0.00000000	          0.00000000	          0.00000000	          0.00000000	          0.00000000	         -0.30897459	          0.00000000	          0.00000000	          0.00000000	          0.00000000	
          2.42500000	         -1.00420208	         18.48416384	          4.99467921	          0.67125986	          0.00000000	          0.15446426	          0.00000000	          0.00000000	          0.00000000	          0.00000000	          0.00000000	          0.00000000	          0.00000000	         -0.18449583	          0.00000000	          0.00000000	          0.00000000	          0.00000000	
          2.42600000	         -1.00504386	         13.45738564	          3.57766960	          0.67896566	          0.00000000	          0.15255878	          0.00000000	          0.00000000	          0.00000000	          0.00000000	          0.00000000	          0.00000000	          0.00000000	         -0.09072698	          0.00000000	          0.00000000	          0.00000000	          0.00000000	
          2.42700000	          0.00000000	          0.00000000	          0.00000000	          0.00000000	          0.00000000	          0.00000000	          0.00000000	          0.00000000	          0.00000000	          0.00000000	          0.00000000	          0.00000000	          0.00000000	          0.00000000	          0.00000000	          0.00000000	          0.00000000	          0.00000000	
          2.42800000	          0.00000000	          0.00000000	          0.00000000	          0.00000000	          0.00000000	          0.00000000	          0.00000000	          0.00000000	          0.00000000	          0.00000000	          0.00000000	          0.00000000	          0.00000000	          0.00000000	          0.00000000	          0.00000000	          0.00000000	          0.00000000	
          2.42900000	          0.00000000	          0.00000000	          0.00000000	          0.00000000	          0.00000000	          0.00000000	          0.00000000	          0.00000000	          0.00000000	          0.00000000	          0.00000000	          0.00000000	          0.00000000	          0.00000000	          0.00000000	          0.00000000	          0.00000000	          0.00000000	
          2.43000000	          0.00000000	          0.00000000	          0.00000000	          0.00000000	          0.00000000	          0.00000000	          0.00000000	          0.00000000	          0.00000000	          0.00000000	          0.00000000	          0.00000000	          0.00000000	          0.00000000	          0.00000000	          0.00000000	          0.00000000	          0.00000000	
          2.43100000	          0.00000000	          0.00000000	          0.00000000	          0.00000000	          0.00000000	          0.00000000	          0.00000000	          0.00000000	          0.00000000	          0.00000000	          0.00000000	          0.00000000	          0.00000000	          0.00000000	          0.00000000	          0.00000000	          0.00000000	          0.00000000	
          2.43200000	          0.00000000	          0.00000000	          0.00000000	          0.00000000	          0.00000000	          0.00000000	          0.00000000	          0.00000000	          0.00000000	          0.00000000	          0.00000000	          0.00000000	          0.00000000	          0.00000000	          0.00000000	          0.00000000	          0.00000000	          0.00000000	
          2.43300000	          0.00000000	          0.00000000	          0.00000000	          0.00000000	          0.00000000	          0.00000000	          0.00000000	          0.00000000	          0.00000000	          0.00000000	          0.00000000	          0.00000000	          0.00000000	          0.00000000	          0.00000000	          0.00000000	          0.00000000	          0.00000000	
          2.43400000	          0.00000000	          0.00000000	          0.00000000	          0.00000000	          0.00000000	          0.00000000	          0.00000000	          0.00000000	          0.00000000	          0.00000000	          0.00000000	          0.00000000	          0.00000000	          0.00000000	          0.00000000	          0.00000000	          0.00000000	          0.00000000	
          2.43500000	          0.00000000	          0.00000000	          0.00000000	          0.00000000	          0.00000000	          0.00000000	          0.00000000	          0.00000000	          0.00000000	          0.00000000	          0.00000000	          0.00000000	          0.00000000	          0.00000000	          0.00000000	          0.00000000	          0.00000000	          0.00000000	
